<svg xmlns="http://www.w3.org/2000/svg" xmlns:xlink="http://www.w3.org/1999/xlink" width="500" zoomAndPan="magnify" viewBox="0 0 375 374.999991" height="500" preserveAspectRatio="xMidYMid meet" version="1.2"><g id="f9437aab83"><path style=" stroke:none;fill-rule:nonzero;fill:#3c2a4d;fill-opacity:1;" d="M 194.453125 295.136719 C 200.675781 307.101562 207.304688 319.628906 218.21875 327.390625 C 230.75 336.363281 248.128906 337.414062 261.0625 329.976562 C 274.078125 322.539062 282 307.101562 280.789062 291.660156 C 279.898438 280.34375 274.480469 269.832031 269.226562 259.730469 C 249.097656 221.007812 228.96875 182.207031 208.839844 143.484375 C 205.203125 136.449219 201.160156 128.933594 194.289062 125.050781 C 186.289062 120.527344 175.535156 122.546875 169.957031 129.578125 C 164.378906 136.613281 164.621094 147.847656 170.441406 155.042969 C 162.117188 157.226562 155.890625 165.714844 156.214844 174.605469 C 156.539062 183.5 163.328125 191.90625 171.816406 194.007812 C 181.519531 196.351562 191.058594 191.097656 199.542969 186.003906 C 201.160156 185.035156 202.859375 183.902344 203.585938 182.125 C 205.042969 178.40625 200.839844 174.28125 196.796875 174.203125 C 192.835938 174.203125 189.441406 176.789062 186.207031 179.132812 C 183.054688 181.476562 179.335938 183.820312 175.375 183.335938 C 169.3125 182.527344 165.917969 173.636719 169.878906 169.109375 C 173.433594 164.988281 180.710938 164.664062 182.570312 159.488281 C 184.914062 152.617188 174.96875 145.503906 177.476562 138.714844 C 179.09375 134.347656 185.15625 133.621094 189.199219 135.964844 C 193.238281 138.390625 195.582031 142.757812 197.765625 146.960938 C 218.785156 187.460938 239.882812 227.960938 260.902344 268.460938 C 264.78125 275.976562 268.742188 283.738281 269.390625 292.144531 C 270.277344 303.703125 263.972656 315.265625 253.949219 320.359375 C 244.007812 325.449219 230.910156 323.914062 222.019531 316.476562 C 215.710938 311.222656 211.75 303.707031 207.871094 296.347656 C 177.71875 238.144531 147.402344 180.023438 117.171875 121.898438 C 112.480469 112.925781 107.710938 103.710938 106.742188 93.6875 C 105.207031 78.730469 113.210938 63.535156 126.144531 56.824219 C 139.078125 50.117188 156.054688 52.296875 167.453125 62.078125 C 171.980469 66.039062 175.535156 70.890625 178.6875 76.0625 L 191.703125 76.0625 C 187.097656 67.738281 181.921875 59.816406 174.890625 53.589844 C 160.097656 40.578125 137.621094 37.585938 120.648438 46.398438 C 120.484375 46.476562 120.324219 46.558594 120.160156 46.640625 C 103.1875 55.691406 93 76.226562 95.585938 95.949219 C 97.121094 107.832031 102.78125 118.828125 108.359375 129.5 C 137.058594 184.710938 165.753906 239.921875 194.453125 295.136719 Z M 194.453125 295.136719 "/></g></svg>