<svg width="1632" height="1120" viewBox="0 0 1632 1120" fill="none" xmlns="http://www.w3.org/2000/svg">
<rect width="1629" height="1120" transform="translate(2.00098 0.000244141)" fill="#F9F6F0"/>
<line x1="815.537" y1="0.000244141" x2="815.537" y2="560" stroke="#FF0000" stroke-opacity="0.2"/>
<line x1="357.863" x2="357.863" y2="280" stroke="#FF0000" stroke-opacity="0.2"/>
<line x1="26.8271" x2="26.8271" y2="280" stroke="#FF0000" stroke-opacity="0.2"/>
<line x1="52.2812" x2="52.2812" y2="280" stroke="#FF0000" stroke-opacity="0.2"/>
<line x1="77.7344" x2="77.7344" y2="280" stroke="#FF0000" stroke-opacity="0.2"/>
<line x1="103.19" x2="103.19" y2="280" stroke="#FF0000" stroke-opacity="0.2"/>
<line x1="128.646" x2="128.646" y2="280" stroke="#FF0000" stroke-opacity="0.2"/>
<line x1="154.1" x2="154.1" y2="280" stroke="#FF0000" stroke-opacity="0.2"/>
<line x1="179.554" x2="179.554" y2="280" stroke="#FF0000" stroke-opacity="0.2"/>
<line x1="205.009" x2="205.009" y2="280" stroke="#FF0000" stroke-opacity="0.2"/>
<line x1="230.464" x2="230.464" y2="280" stroke="#FF0000" stroke-opacity="0.2"/>
<line x1="255.918" x2="255.918" y2="280" stroke="#FF0000" stroke-opacity="0.2"/>
<line x1="281.372" x2="281.372" y2="280" stroke="#FF0000" stroke-opacity="0.2"/>
<line x1="306.824" x2="306.824" y2="280" stroke="#FF0000" stroke-opacity="0.2"/>
<line x1="332.282" x2="332.282" y2="280" stroke="#FF0000" stroke-opacity="0.2"/>
<line x1="382.936" x2="382.936" y2="280" stroke="#FF0000" stroke-opacity="0.2"/>
<line x1="1" y1="25.0183" x2="408.272" y2="25.0183" stroke="#FF0000" stroke-opacity="0.2"/>
<line x1="1" y1="50.7908" x2="408.273" y2="50.7908" stroke="#FF0000" stroke-opacity="0.2"/>
<line x1="1" y1="75.8318" x2="408.273" y2="75.8318" stroke="#FF0000" stroke-opacity="0.2"/>
<line x1="1" y1="101.509" x2="407.764" y2="101.509" stroke="#FF0000" stroke-opacity="0.2"/>
<line x1="1" y1="126.645" x2="407.763" y2="126.645" stroke="#FF0000" stroke-opacity="0.2"/>
<path d="M1 152.6H407.764" stroke="#FF0000" stroke-opacity="0.2"/>
<line x1="1" y1="177.618" x2="407.763" y2="177.618" stroke="#FF0000" stroke-opacity="0.2"/>
<line x1="1" y1="203.072" x2="407.763" y2="203.072" stroke="#FF0000" stroke-opacity="0.2"/>
<line x1="1" y1="228.527" x2="407.763" y2="228.527" stroke="#FF0000" stroke-opacity="0.2"/>
<line x1="1" y1="254.109" x2="407.763" y2="254.109" stroke="#FF0000" stroke-opacity="0.2"/>
<line x1="1" y1="279.309" x2="407.763" y2="279.309" stroke="#FF0000" stroke-opacity="0.2"/>
<line x1="357.864" y1="280" x2="357.864" y2="560" stroke="#FF0000" stroke-opacity="0.2"/>
<line x1="26.8271" y1="280" x2="26.8271" y2="560" stroke="#FF0000" stroke-opacity="0.2"/>
<line x1="52.2822" y1="280" x2="52.2822" y2="560" stroke="#FF0000" stroke-opacity="0.2"/>
<line x1="77.7354" y1="280" x2="77.7354" y2="560" stroke="#FF0000" stroke-opacity="0.2"/>
<line x1="103.191" y1="280" x2="103.191" y2="560" stroke="#FF0000" stroke-opacity="0.2"/>
<line x1="128.646" y1="280" x2="128.646" y2="560" stroke="#FF0000" stroke-opacity="0.2"/>
<line x1="154.101" y1="280" x2="154.101" y2="560" stroke="#FF0000" stroke-opacity="0.2"/>
<line x1="179.556" y1="280" x2="179.556" y2="560" stroke="#FF0000" stroke-opacity="0.2"/>
<line x1="205.009" y1="280" x2="205.009" y2="560" stroke="#FF0000" stroke-opacity="0.2"/>
<line x1="230.464" y1="280" x2="230.464" y2="560" stroke="#FF0000" stroke-opacity="0.2"/>
<line x1="255.919" y1="280" x2="255.919" y2="560" stroke="#FF0000" stroke-opacity="0.2"/>
<line x1="281.373" y1="280" x2="281.373" y2="560" stroke="#FF0000" stroke-opacity="0.2"/>
<line x1="306.825" y1="280" x2="306.825" y2="560" stroke="#FF0000" stroke-opacity="0.2"/>
<line x1="332.282" y1="280" x2="332.282" y2="560" stroke="#FF0000" stroke-opacity="0.2"/>
<line x1="382.937" y1="280" x2="382.937" y2="560" stroke="#FF0000" stroke-opacity="0.2"/>
<line x1="1.00098" y1="305.018" x2="408.273" y2="305.018" stroke="#FF0000" stroke-opacity="0.2"/>
<line x1="1.00098" y1="330.791" x2="408.274" y2="330.791" stroke="#FF0000" stroke-opacity="0.2"/>
<line x1="1.00098" y1="355.832" x2="408.274" y2="355.832" stroke="#FF0000" stroke-opacity="0.2"/>
<line x1="1.00098" y1="381.509" x2="407.765" y2="381.509" stroke="#FF0000" stroke-opacity="0.2"/>
<line x1="1.00098" y1="406.646" x2="407.764" y2="406.646" stroke="#FF0000" stroke-opacity="0.2"/>
<path d="M1.00098 432.6H407.765" stroke="#FF0000" stroke-opacity="0.2"/>
<line x1="1.00098" y1="457.618" x2="407.764" y2="457.618" stroke="#FF0000" stroke-opacity="0.2"/>
<line x1="1.00098" y1="483.073" x2="407.764" y2="483.073" stroke="#FF0000" stroke-opacity="0.2"/>
<line x1="1.00098" y1="508.527" x2="407.764" y2="508.527" stroke="#FF0000" stroke-opacity="0.2"/>
<line x1="1.00098" y1="534.109" x2="407.764" y2="534.109" stroke="#FF0000" stroke-opacity="0.2"/>
<line x1="484.119" y1="0.000244141" x2="484.119" y2="280" stroke="#FF0000" stroke-opacity="0.2"/>
<line x1="789.191" y1="0.000244141" x2="789.191" y2="280" stroke="#FF0000" stroke-opacity="0.2"/>
<line x1="407.765" y1="25.0183" x2="815.037" y2="25.0183" stroke="#FF0000" stroke-opacity="0.2"/>
<line x1="407.765" y1="50.791" x2="815.037" y2="50.791" stroke="#FF0000" stroke-opacity="0.2"/>
<line x1="407.765" y1="75.832" x2="815.037" y2="75.832" stroke="#FF0000" stroke-opacity="0.2"/>
<line x1="407.765" y1="101.668" x2="815.546" y2="101.668" stroke="#FF0000" stroke-opacity="0.2"/>
<line x1="407.765" y1="126.709" x2="815.037" y2="126.709" stroke="#FF0000" stroke-opacity="0.2"/>
<path d="M407.765 152.664H815.037" stroke="#FF0000" stroke-opacity="0.2"/>
<line x1="407.765" y1="177.65" x2="815.037" y2="177.65" stroke="#FF0000" stroke-opacity="0.2"/>
<line x1="407.765" y1="203.104" x2="815.037" y2="203.104" stroke="#FF0000" stroke-opacity="0.2"/>
<line x1="407.765" y1="228.559" x2="815.037" y2="228.559" stroke="#FF0000" stroke-opacity="0.2"/>
<line x1="407.765" y1="254.109" x2="815.037" y2="254.109" stroke="#FF0000" stroke-opacity="0.2"/>
<line x1="407.765" y1="279.15" x2="815.037" y2="279.15" stroke="#FF0000" stroke-opacity="0.2"/>
<line x1="764.119" y1="0.000244141" x2="764.119" y2="280" stroke="#FF0000" stroke-opacity="0.2"/>
<line x1="764.119" y1="280" x2="764.119" y2="560" stroke="#FF0000" stroke-opacity="0.2"/>
<line x1="433.21" y1="0.000244141" x2="433.21" y2="280" stroke="#FF0000" stroke-opacity="0.2"/>
<line x1="433.21" y1="280" x2="433.21" y2="560" stroke="#FF0000" stroke-opacity="0.2"/>
<line x1="407.756" y1="0.000244141" x2="407.756" y2="280" stroke="#FF0000" stroke-opacity="0.2"/>
<line x1="407.756" y1="280" x2="407.756" y2="560" stroke="#FF0000" stroke-opacity="0.2"/>
<line x1="458.665" y1="0.000244141" x2="458.665" y2="280" stroke="#FF0000" stroke-opacity="0.2"/>
<line x1="458.665" y1="280" x2="458.665" y2="560" stroke="#FF0000" stroke-opacity="0.2"/>
<line x1="484.119" y1="280" x2="484.119" y2="560" stroke="#FF0000" stroke-opacity="0.2"/>
<line x1="509.573" y1="0.000244141" x2="509.573" y2="280" stroke="#FF0000" stroke-opacity="0.2"/>
<line x1="509.573" y1="280" x2="509.573" y2="560" stroke="#FF0000" stroke-opacity="0.2"/>
<line x1="535.028" y1="0.000244141" x2="535.028" y2="280" stroke="#FF0000" stroke-opacity="0.2"/>
<line x1="535.028" y1="280" x2="535.028" y2="560" stroke="#FF0000" stroke-opacity="0.2"/>
<line x1="560.482" y1="0.000244141" x2="560.482" y2="280" stroke="#FF0000" stroke-opacity="0.2"/>
<line x1="560.482" y1="280" x2="560.482" y2="560" stroke="#FF0000" stroke-opacity="0.2"/>
<line x1="585.938" y1="0.000244141" x2="585.938" y2="280" stroke="#FF0000" stroke-opacity="0.2"/>
<line x1="585.938" y1="280" x2="585.938" y2="560" stroke="#FF0000" stroke-opacity="0.2"/>
<line x1="611.392" y1="0.000244141" x2="611.392" y2="280" stroke="#FF0000" stroke-opacity="0.2"/>
<line x1="611.392" y1="280" x2="611.392" y2="560" stroke="#FF0000" stroke-opacity="0.2"/>
<line x1="636.846" y1="0.000244141" x2="636.846" y2="280" stroke="#FF0000" stroke-opacity="0.2"/>
<line x1="636.846" y1="280" x2="636.846" y2="560" stroke="#FF0000" stroke-opacity="0.2"/>
<line x1="662.301" y1="0.000244141" x2="662.301" y2="280" stroke="#FF0000" stroke-opacity="0.2"/>
<line x1="662.301" y1="280" x2="662.301" y2="560" stroke="#FF0000" stroke-opacity="0.2"/>
<line x1="687.755" y1="0.000244141" x2="687.755" y2="280" stroke="#FF0000" stroke-opacity="0.2"/>
<line x1="687.755" y1="280" x2="687.755" y2="560" stroke="#FF0000" stroke-opacity="0.2"/>
<line x1="713.211" y1="0.000244141" x2="713.211" y2="280" stroke="#FF0000" stroke-opacity="0.2"/>
<line x1="713.211" y1="280" x2="713.211" y2="560" stroke="#FF0000" stroke-opacity="0.2"/>
<line x1="738.664" y1="0.000244141" x2="738.664" y2="280" stroke="#FF0000" stroke-opacity="0.2"/>
<line x1="738.664" y1="280" x2="738.664" y2="560" stroke="#FF0000" stroke-opacity="0.2"/>
<line x1="789.191" y1="280" x2="789.191" y2="560" stroke="#FF0000" stroke-opacity="0.2"/>
<line x1="407.256" y1="305.019" x2="815.037" y2="305.019" stroke="#FF0000" stroke-opacity="0.2"/>
<line x1="407.256" y1="330.6" x2="815.037" y2="330.6" stroke="#FF0000" stroke-opacity="0.2"/>
<line x1="407.256" y1="355.848" x2="815.037" y2="355.848" stroke="#FF0000" stroke-opacity="0.2"/>
<line x1="407.256" y1="381.414" x2="815.037" y2="381.414" stroke="#FF0000" stroke-opacity="0.2"/>
<line x1="407.256" y1="406.455" x2="815.037" y2="406.455" stroke="#FF0000" stroke-opacity="0.2"/>
<path d="M407.256 432.664H815.037" stroke="#FF0000" stroke-opacity="0.2"/>
<line x1="407.256" y1="457.65" x2="815.037" y2="457.65" stroke="#FF0000" stroke-opacity="0.2"/>
<line x1="407.256" y1="483.105" x2="815.546" y2="483.105" stroke="#FF0000" stroke-opacity="0.2"/>
<line x1="407.256" y1="508.559" x2="815.546" y2="508.559" stroke="#FF0000" stroke-opacity="0.2"/>
<line x1="407.256" y1="534.078" x2="815.546" y2="534.078" stroke="#FF0000" stroke-opacity="0.2"/>
<line x1="815.537" y1="560" x2="815.537" y2="1120" stroke="#FF0000" stroke-opacity="0.2"/>
<line x1="357.863" y1="560" x2="357.863" y2="840" stroke="#FF0000" stroke-opacity="0.2"/>
<line x1="26.8271" y1="560" x2="26.8271" y2="840" stroke="#FF0000" stroke-opacity="0.2"/>
<line x1="52.2812" y1="560" x2="52.2812" y2="840" stroke="#FF0000" stroke-opacity="0.2"/>
<line x1="77.7344" y1="560" x2="77.7344" y2="840" stroke="#FF0000" stroke-opacity="0.2"/>
<line x1="103.19" y1="560" x2="103.19" y2="840" stroke="#FF0000" stroke-opacity="0.2"/>
<line x1="128.646" y1="560" x2="128.646" y2="840" stroke="#FF0000" stroke-opacity="0.2"/>
<line x1="154.1" y1="560" x2="154.1" y2="840" stroke="#FF0000" stroke-opacity="0.2"/>
<line x1="179.554" y1="560" x2="179.554" y2="840" stroke="#FF0000" stroke-opacity="0.2"/>
<line x1="205.009" y1="560" x2="205.009" y2="840" stroke="#FF0000" stroke-opacity="0.2"/>
<line x1="230.464" y1="560" x2="230.464" y2="840" stroke="#FF0000" stroke-opacity="0.2"/>
<line x1="255.918" y1="560" x2="255.918" y2="840" stroke="#FF0000" stroke-opacity="0.2"/>
<line x1="281.372" y1="560" x2="281.372" y2="840" stroke="#FF0000" stroke-opacity="0.2"/>
<line x1="306.824" y1="560" x2="306.824" y2="840" stroke="#FF0000" stroke-opacity="0.2"/>
<line x1="332.282" y1="560" x2="332.282" y2="840" stroke="#FF0000" stroke-opacity="0.2"/>
<line x1="382.936" y1="560" x2="382.936" y2="840" stroke="#FF0000" stroke-opacity="0.2"/>
<line x1="1" y1="610.791" x2="408.273" y2="610.791" stroke="#FF0000" stroke-opacity="0.2"/>
<line x1="1" y1="635.832" x2="408.273" y2="635.832" stroke="#FF0000" stroke-opacity="0.2"/>
<line x1="1" y1="661.509" x2="407.764" y2="661.509" stroke="#FF0000" stroke-opacity="0.2"/>
<line x1="1" y1="686.645" x2="407.763" y2="686.645" stroke="#FF0000" stroke-opacity="0.2"/>
<path d="M1 712.6H407.764" stroke="#FF0000" stroke-opacity="0.2"/>
<line x1="1" y1="737.618" x2="407.763" y2="737.618" stroke="#FF0000" stroke-opacity="0.2"/>
<line x1="1" y1="763.072" x2="407.763" y2="763.072" stroke="#FF0000" stroke-opacity="0.2"/>
<line x1="1" y1="788.527" x2="407.763" y2="788.527" stroke="#FF0000" stroke-opacity="0.2"/>
<line x1="1" y1="814.109" x2="407.763" y2="814.109" stroke="#FF0000" stroke-opacity="0.2"/>
<line x1="1" y1="839.309" x2="407.763" y2="839.309" stroke="#FF0000" stroke-opacity="0.2"/>
<line x1="357.864" y1="840" x2="357.864" y2="1120" stroke="#FF0000" stroke-opacity="0.2"/>
<line x1="26.8271" y1="840" x2="26.8271" y2="1120" stroke="#FF0000" stroke-opacity="0.2"/>
<line x1="52.2822" y1="840" x2="52.2822" y2="1120" stroke="#FF0000" stroke-opacity="0.2"/>
<line x1="77.7354" y1="840" x2="77.7354" y2="1120" stroke="#FF0000" stroke-opacity="0.2"/>
<line x1="103.191" y1="840" x2="103.191" y2="1120" stroke="#FF0000" stroke-opacity="0.2"/>
<line x1="128.646" y1="840" x2="128.646" y2="1120" stroke="#FF0000" stroke-opacity="0.2"/>
<line x1="154.101" y1="840" x2="154.101" y2="1120" stroke="#FF0000" stroke-opacity="0.2"/>
<line x1="179.556" y1="840" x2="179.556" y2="1120" stroke="#FF0000" stroke-opacity="0.2"/>
<line x1="205.009" y1="840" x2="205.009" y2="1120" stroke="#FF0000" stroke-opacity="0.2"/>
<line x1="230.464" y1="840" x2="230.464" y2="1120" stroke="#FF0000" stroke-opacity="0.2"/>
<line x1="255.919" y1="840" x2="255.919" y2="1120" stroke="#FF0000" stroke-opacity="0.2"/>
<line x1="281.373" y1="840" x2="281.373" y2="1120" stroke="#FF0000" stroke-opacity="0.2"/>
<line x1="306.825" y1="840" x2="306.825" y2="1120" stroke="#FF0000" stroke-opacity="0.2"/>
<line x1="332.282" y1="840" x2="332.282" y2="1120" stroke="#FF0000" stroke-opacity="0.2"/>
<line x1="382.937" y1="840" x2="382.937" y2="1120" stroke="#FF0000" stroke-opacity="0.2"/>
<line x1="1.00098" y1="865.018" x2="408.273" y2="865.018" stroke="#FF0000" stroke-opacity="0.2"/>
<line x1="1.00098" y1="890.791" x2="408.274" y2="890.791" stroke="#FF0000" stroke-opacity="0.2"/>
<line x1="1.00098" y1="915.832" x2="408.274" y2="915.832" stroke="#FF0000" stroke-opacity="0.2"/>
<line x1="1.00098" y1="941.509" x2="407.765" y2="941.509" stroke="#FF0000" stroke-opacity="0.2"/>
<line x1="1.00098" y1="966.646" x2="407.764" y2="966.646" stroke="#FF0000" stroke-opacity="0.2"/>
<path d="M1.00098 992.6H407.765" stroke="#FF0000" stroke-opacity="0.2"/>
<line x1="1.00098" y1="1017.62" x2="407.764" y2="1017.62" stroke="#FF0000" stroke-opacity="0.2"/>
<line x1="1.00098" y1="1043.07" x2="407.764" y2="1043.07" stroke="#FF0000" stroke-opacity="0.2"/>
<line x1="1.00098" y1="1068.53" x2="407.764" y2="1068.53" stroke="#FF0000" stroke-opacity="0.2"/>
<line x1="1.00098" y1="1094.11" x2="407.764" y2="1094.11" stroke="#FF0000" stroke-opacity="0.2"/>
<line x1="484.119" y1="560" x2="484.119" y2="840" stroke="#FF0000" stroke-opacity="0.2"/>
<line x1="789.191" y1="560" x2="789.191" y2="840" stroke="#FF0000" stroke-opacity="0.2"/>
<line x1="407.765" y1="610.791" x2="815.037" y2="610.791" stroke="#FF0000" stroke-opacity="0.2"/>
<line x1="407.765" y1="635.832" x2="815.037" y2="635.832" stroke="#FF0000" stroke-opacity="0.2"/>
<line x1="407.765" y1="661.668" x2="815.546" y2="661.668" stroke="#FF0000" stroke-opacity="0.2"/>
<line x1="407.765" y1="686.709" x2="815.037" y2="686.709" stroke="#FF0000" stroke-opacity="0.2"/>
<path d="M407.765 712.664H815.037" stroke="#FF0000" stroke-opacity="0.2"/>
<line x1="407.765" y1="737.65" x2="815.037" y2="737.65" stroke="#FF0000" stroke-opacity="0.2"/>
<line x1="407.765" y1="763.104" x2="815.037" y2="763.104" stroke="#FF0000" stroke-opacity="0.2"/>
<line x1="407.765" y1="788.559" x2="815.037" y2="788.559" stroke="#FF0000" stroke-opacity="0.2"/>
<line x1="407.765" y1="814.109" x2="815.037" y2="814.109" stroke="#FF0000" stroke-opacity="0.2"/>
<line x1="407.765" y1="839.15" x2="815.037" y2="839.15" stroke="#FF0000" stroke-opacity="0.2"/>
<line x1="764.119" y1="560" x2="764.119" y2="840" stroke="#FF0000" stroke-opacity="0.2"/>
<line x1="764.119" y1="840" x2="764.119" y2="1120" stroke="#FF0000" stroke-opacity="0.2"/>
<line x1="433.21" y1="560" x2="433.21" y2="840" stroke="#FF0000" stroke-opacity="0.2"/>
<line x1="433.21" y1="840" x2="433.21" y2="1120" stroke="#FF0000" stroke-opacity="0.2"/>
<line x1="407.756" y1="560" x2="407.756" y2="840" stroke="#FF0000" stroke-opacity="0.2"/>
<line x1="407.756" y1="840" x2="407.756" y2="1120" stroke="#FF0000" stroke-opacity="0.2"/>
<line x1="458.665" y1="560" x2="458.665" y2="840" stroke="#FF0000" stroke-opacity="0.2"/>
<line x1="458.665" y1="840" x2="458.665" y2="1120" stroke="#FF0000" stroke-opacity="0.2"/>
<line x1="484.119" y1="840" x2="484.119" y2="1120" stroke="#FF0000" stroke-opacity="0.2"/>
<line x1="509.573" y1="560" x2="509.573" y2="840" stroke="#FF0000" stroke-opacity="0.2"/>
<line x1="509.573" y1="840" x2="509.573" y2="1120" stroke="#FF0000" stroke-opacity="0.2"/>
<line x1="535.028" y1="560" x2="535.028" y2="840" stroke="#FF0000" stroke-opacity="0.2"/>
<line x1="535.028" y1="840" x2="535.028" y2="1120" stroke="#FF0000" stroke-opacity="0.2"/>
<line x1="560.482" y1="560" x2="560.482" y2="840" stroke="#FF0000" stroke-opacity="0.2"/>
<line x1="560.482" y1="840" x2="560.482" y2="1120" stroke="#FF0000" stroke-opacity="0.2"/>
<line x1="585.938" y1="560" x2="585.938" y2="840" stroke="#FF0000" stroke-opacity="0.2"/>
<line x1="585.938" y1="840" x2="585.938" y2="1120" stroke="#FF0000" stroke-opacity="0.2"/>
<line x1="611.392" y1="560" x2="611.392" y2="840" stroke="#FF0000" stroke-opacity="0.2"/>
<line x1="611.392" y1="840" x2="611.392" y2="1120" stroke="#FF0000" stroke-opacity="0.2"/>
<line x1="636.846" y1="560" x2="636.846" y2="840" stroke="#FF0000" stroke-opacity="0.2"/>
<line x1="636.846" y1="840" x2="636.846" y2="1120" stroke="#FF0000" stroke-opacity="0.2"/>
<line x1="662.301" y1="560" x2="662.301" y2="840" stroke="#FF0000" stroke-opacity="0.2"/>
<line x1="662.301" y1="840" x2="662.301" y2="1120" stroke="#FF0000" stroke-opacity="0.2"/>
<line x1="687.755" y1="560" x2="687.755" y2="840" stroke="#FF0000" stroke-opacity="0.2"/>
<line x1="687.755" y1="840" x2="687.755" y2="1120" stroke="#FF0000" stroke-opacity="0.2"/>
<line x1="713.211" y1="560" x2="713.211" y2="840" stroke="#FF0000" stroke-opacity="0.2"/>
<line x1="713.211" y1="840" x2="713.211" y2="1120" stroke="#FF0000" stroke-opacity="0.2"/>
<line x1="738.664" y1="560" x2="738.664" y2="840" stroke="#FF0000" stroke-opacity="0.2"/>
<line x1="738.664" y1="840" x2="738.664" y2="1120" stroke="#FF0000" stroke-opacity="0.2"/>
<line x1="789.191" y1="840" x2="789.191" y2="1120" stroke="#FF0000" stroke-opacity="0.2"/>
<line x1="407.256" y1="865.019" x2="815.037" y2="865.019" stroke="#FF0000" stroke-opacity="0.2"/>
<line x1="407.256" y1="890.6" x2="815.037" y2="890.6" stroke="#FF0000" stroke-opacity="0.2"/>
<line x1="407.256" y1="915.848" x2="815.037" y2="915.848" stroke="#FF0000" stroke-opacity="0.2"/>
<line x1="407.256" y1="941.414" x2="815.037" y2="941.414" stroke="#FF0000" stroke-opacity="0.2"/>
<line x1="407.256" y1="966.455" x2="815.037" y2="966.455" stroke="#FF0000" stroke-opacity="0.2"/>
<path d="M407.256 992.664H815.037" stroke="#FF0000" stroke-opacity="0.2"/>
<line x1="407.256" y1="1017.65" x2="815.037" y2="1017.65" stroke="#FF0000" stroke-opacity="0.2"/>
<line x1="407.256" y1="1043.1" x2="815.546" y2="1043.1" stroke="#FF0000" stroke-opacity="0.2"/>
<line x1="407.256" y1="1068.56" x2="815.546" y2="1068.56" stroke="#FF0000" stroke-opacity="0.2"/>
<line x1="407.256" y1="1094.08" x2="815.546" y2="1094.08" stroke="#FF0000" stroke-opacity="0.2"/>
<line x1="1630.54" y1="0.000244141" x2="1630.54" y2="560" stroke="#FF0000" stroke-opacity="0.2"/>
<line x1="1172.86" x2="1172.86" y2="280" stroke="#FF0000" stroke-opacity="0.2"/>
<line x1="841.827" x2="841.827" y2="280" stroke="#FF0000" stroke-opacity="0.2"/>
<line x1="867.281" x2="867.281" y2="280" stroke="#FF0000" stroke-opacity="0.2"/>
<line x1="892.734" x2="892.734" y2="280" stroke="#FF0000" stroke-opacity="0.2"/>
<line x1="918.19" x2="918.19" y2="280" stroke="#FF0000" stroke-opacity="0.2"/>
<line x1="943.646" x2="943.646" y2="280" stroke="#FF0000" stroke-opacity="0.2"/>
<line x1="969.1" x2="969.1" y2="280" stroke="#FF0000" stroke-opacity="0.2"/>
<line x1="994.554" x2="994.554" y2="280" stroke="#FF0000" stroke-opacity="0.2"/>
<line x1="1020.01" x2="1020.01" y2="280" stroke="#FF0000" stroke-opacity="0.2"/>
<line x1="1045.46" x2="1045.46" y2="280" stroke="#FF0000" stroke-opacity="0.2"/>
<line x1="1070.92" x2="1070.92" y2="280" stroke="#FF0000" stroke-opacity="0.2"/>
<line x1="1096.37" x2="1096.37" y2="280" stroke="#FF0000" stroke-opacity="0.2"/>
<line x1="1121.82" x2="1121.82" y2="280" stroke="#FF0000" stroke-opacity="0.2"/>
<line x1="1147.28" x2="1147.28" y2="280" stroke="#FF0000" stroke-opacity="0.2"/>
<line x1="1197.94" x2="1197.94" y2="280" stroke="#FF0000" stroke-opacity="0.2"/>
<line x1="816" y1="25.0183" x2="1223.27" y2="25.0183" stroke="#FF0000" stroke-opacity="0.2"/>
<line x1="816" y1="50.7908" x2="1223.27" y2="50.7908" stroke="#FF0000" stroke-opacity="0.2"/>
<line x1="816" y1="75.8318" x2="1223.27" y2="75.8318" stroke="#FF0000" stroke-opacity="0.2"/>
<line x1="816" y1="101.509" x2="1222.76" y2="101.509" stroke="#FF0000" stroke-opacity="0.2"/>
<line x1="816" y1="126.645" x2="1222.76" y2="126.645" stroke="#FF0000" stroke-opacity="0.2"/>
<path d="M816 152.6H1222.76" stroke="#FF0000" stroke-opacity="0.2"/>
<line x1="816" y1="177.618" x2="1222.76" y2="177.618" stroke="#FF0000" stroke-opacity="0.2"/>
<line x1="816" y1="203.072" x2="1222.76" y2="203.072" stroke="#FF0000" stroke-opacity="0.2"/>
<line x1="816" y1="228.527" x2="1222.76" y2="228.527" stroke="#FF0000" stroke-opacity="0.2"/>
<line x1="816" y1="254.109" x2="1222.76" y2="254.109" stroke="#FF0000" stroke-opacity="0.2"/>
<line x1="816" y1="279.309" x2="1222.76" y2="279.309" stroke="#FF0000" stroke-opacity="0.2"/>
<line x1="1172.86" y1="280" x2="1172.86" y2="560" stroke="#FF0000" stroke-opacity="0.2"/>
<line x1="841.827" y1="280" x2="841.827" y2="560" stroke="#FF0000" stroke-opacity="0.2"/>
<line x1="867.282" y1="280" x2="867.282" y2="560" stroke="#FF0000" stroke-opacity="0.2"/>
<line x1="892.735" y1="280" x2="892.735" y2="560" stroke="#FF0000" stroke-opacity="0.2"/>
<line x1="918.191" y1="280" x2="918.191" y2="560" stroke="#FF0000" stroke-opacity="0.2"/>
<line x1="943.646" y1="280" x2="943.646" y2="560" stroke="#FF0000" stroke-opacity="0.2"/>
<line x1="969.101" y1="280" x2="969.101" y2="560" stroke="#FF0000" stroke-opacity="0.2"/>
<line x1="994.556" y1="280" x2="994.556" y2="560" stroke="#FF0000" stroke-opacity="0.2"/>
<line x1="1020.01" y1="280" x2="1020.01" y2="560" stroke="#FF0000" stroke-opacity="0.2"/>
<line x1="1045.46" y1="280" x2="1045.46" y2="560" stroke="#FF0000" stroke-opacity="0.2"/>
<line x1="1070.92" y1="280" x2="1070.92" y2="560" stroke="#FF0000" stroke-opacity="0.2"/>
<line x1="1096.37" y1="280" x2="1096.37" y2="560" stroke="#FF0000" stroke-opacity="0.2"/>
<line x1="1121.83" y1="280" x2="1121.83" y2="560" stroke="#FF0000" stroke-opacity="0.2"/>
<line x1="1147.28" y1="280" x2="1147.28" y2="560" stroke="#FF0000" stroke-opacity="0.2"/>
<line x1="1197.94" y1="280" x2="1197.94" y2="560" stroke="#FF0000" stroke-opacity="0.2"/>
<line x1="816.001" y1="305.018" x2="1223.27" y2="305.018" stroke="#FF0000" stroke-opacity="0.2"/>
<line x1="816.001" y1="330.791" x2="1223.27" y2="330.791" stroke="#FF0000" stroke-opacity="0.2"/>
<line x1="816.001" y1="355.832" x2="1223.27" y2="355.832" stroke="#FF0000" stroke-opacity="0.2"/>
<line x1="816.001" y1="381.509" x2="1222.76" y2="381.509" stroke="#FF0000" stroke-opacity="0.2"/>
<line x1="816.001" y1="406.646" x2="1222.76" y2="406.646" stroke="#FF0000" stroke-opacity="0.2"/>
<path d="M816.001 432.6H1222.76" stroke="#FF0000" stroke-opacity="0.2"/>
<line x1="816.001" y1="457.618" x2="1222.76" y2="457.618" stroke="#FF0000" stroke-opacity="0.2"/>
<line x1="816.001" y1="483.073" x2="1222.76" y2="483.073" stroke="#FF0000" stroke-opacity="0.2"/>
<line x1="816.001" y1="508.527" x2="1222.76" y2="508.527" stroke="#FF0000" stroke-opacity="0.2"/>
<line x1="816.001" y1="534.109" x2="1222.76" y2="534.109" stroke="#FF0000" stroke-opacity="0.2"/>
<line x1="1299.12" y1="0.000244141" x2="1299.12" y2="280" stroke="#FF0000" stroke-opacity="0.2"/>
<line x1="1604.19" y1="0.000244141" x2="1604.19" y2="280" stroke="#FF0000" stroke-opacity="0.2"/>
<line x1="1222.76" y1="25.0183" x2="1630.04" y2="25.0183" stroke="#FF0000" stroke-opacity="0.2"/>
<line x1="1222.76" y1="50.791" x2="1630.04" y2="50.791" stroke="#FF0000" stroke-opacity="0.2"/>
<line x1="1222.76" y1="75.832" x2="1630.04" y2="75.832" stroke="#FF0000" stroke-opacity="0.2"/>
<line x1="1222.76" y1="101.668" x2="1630.55" y2="101.668" stroke="#FF0000" stroke-opacity="0.2"/>
<line x1="1222.76" y1="126.709" x2="1630.04" y2="126.709" stroke="#FF0000" stroke-opacity="0.2"/>
<path d="M1222.76 152.664H1630.04" stroke="#FF0000" stroke-opacity="0.2"/>
<line x1="1222.76" y1="177.65" x2="1630.04" y2="177.65" stroke="#FF0000" stroke-opacity="0.2"/>
<line x1="1222.76" y1="203.104" x2="1630.04" y2="203.104" stroke="#FF0000" stroke-opacity="0.2"/>
<line x1="1222.76" y1="228.559" x2="1630.04" y2="228.559" stroke="#FF0000" stroke-opacity="0.2"/>
<line x1="1222.76" y1="254.109" x2="1630.04" y2="254.109" stroke="#FF0000" stroke-opacity="0.2"/>
<line x1="1222.76" y1="279.15" x2="1630.04" y2="279.15" stroke="#FF0000" stroke-opacity="0.2"/>
<line x1="1579.12" y1="0.000244141" x2="1579.12" y2="280" stroke="#FF0000" stroke-opacity="0.2"/>
<line x1="1579.12" y1="280" x2="1579.12" y2="560" stroke="#FF0000" stroke-opacity="0.2"/>
<line x1="1248.21" y1="0.000244141" x2="1248.21" y2="280" stroke="#FF0000" stroke-opacity="0.2"/>
<line x1="1248.21" y1="280" x2="1248.21" y2="560" stroke="#FF0000" stroke-opacity="0.2"/>
<line x1="1222.76" y1="0.000244141" x2="1222.76" y2="280" stroke="#FF0000" stroke-opacity="0.2"/>
<line x1="1222.76" y1="280" x2="1222.76" y2="560" stroke="#FF0000" stroke-opacity="0.2"/>
<line x1="1273.67" y1="0.000244141" x2="1273.67" y2="280" stroke="#FF0000" stroke-opacity="0.2"/>
<line x1="1273.67" y1="280" x2="1273.67" y2="560" stroke="#FF0000" stroke-opacity="0.2"/>
<line x1="1299.12" y1="280" x2="1299.12" y2="560" stroke="#FF0000" stroke-opacity="0.2"/>
<line x1="1324.57" y1="0.000244141" x2="1324.57" y2="280" stroke="#FF0000" stroke-opacity="0.2"/>
<line x1="1324.57" y1="280" x2="1324.57" y2="560" stroke="#FF0000" stroke-opacity="0.2"/>
<line x1="1350.03" y1="0.000244141" x2="1350.03" y2="280" stroke="#FF0000" stroke-opacity="0.2"/>
<line x1="1350.03" y1="280" x2="1350.03" y2="560" stroke="#FF0000" stroke-opacity="0.2"/>
<line x1="1375.48" y1="0.000244141" x2="1375.48" y2="280" stroke="#FF0000" stroke-opacity="0.2"/>
<line x1="1375.48" y1="280" x2="1375.48" y2="560" stroke="#FF0000" stroke-opacity="0.2"/>
<line x1="1400.94" y1="0.000244141" x2="1400.94" y2="280" stroke="#FF0000" stroke-opacity="0.2"/>
<line x1="1400.94" y1="280" x2="1400.94" y2="560" stroke="#FF0000" stroke-opacity="0.2"/>
<line x1="1426.39" y1="0.000244141" x2="1426.39" y2="280" stroke="#FF0000" stroke-opacity="0.2"/>
<line x1="1426.39" y1="280" x2="1426.39" y2="560" stroke="#FF0000" stroke-opacity="0.2"/>
<line x1="1451.85" y1="0.000244141" x2="1451.85" y2="280" stroke="#FF0000" stroke-opacity="0.2"/>
<line x1="1451.85" y1="280" x2="1451.85" y2="560" stroke="#FF0000" stroke-opacity="0.2"/>
<line x1="1477.3" y1="0.000244141" x2="1477.3" y2="280" stroke="#FF0000" stroke-opacity="0.2"/>
<line x1="1477.3" y1="280" x2="1477.3" y2="560" stroke="#FF0000" stroke-opacity="0.2"/>
<line x1="1502.75" y1="0.000244141" x2="1502.75" y2="280" stroke="#FF0000" stroke-opacity="0.2"/>
<line x1="1502.75" y1="280" x2="1502.75" y2="560" stroke="#FF0000" stroke-opacity="0.2"/>
<line x1="1528.21" y1="0.000244141" x2="1528.21" y2="280" stroke="#FF0000" stroke-opacity="0.2"/>
<line x1="1528.21" y1="280" x2="1528.21" y2="560" stroke="#FF0000" stroke-opacity="0.2"/>
<line x1="1553.66" y1="0.000244141" x2="1553.66" y2="280" stroke="#FF0000" stroke-opacity="0.2"/>
<line x1="1553.66" y1="280" x2="1553.66" y2="560" stroke="#FF0000" stroke-opacity="0.2"/>
<line x1="1604.19" y1="280" x2="1604.19" y2="560" stroke="#FF0000" stroke-opacity="0.2"/>
<line x1="1222.26" y1="305.019" x2="1630.04" y2="305.019" stroke="#FF0000" stroke-opacity="0.2"/>
<line x1="1222.26" y1="330.6" x2="1630.04" y2="330.6" stroke="#FF0000" stroke-opacity="0.2"/>
<line x1="1222.26" y1="355.848" x2="1630.04" y2="355.848" stroke="#FF0000" stroke-opacity="0.2"/>
<line x1="1222.26" y1="381.414" x2="1630.04" y2="381.414" stroke="#FF0000" stroke-opacity="0.2"/>
<line x1="1222.26" y1="406.455" x2="1630.04" y2="406.455" stroke="#FF0000" stroke-opacity="0.2"/>
<path d="M1222.26 432.664H1630.04" stroke="#FF0000" stroke-opacity="0.2"/>
<line x1="1222.26" y1="457.65" x2="1630.04" y2="457.65" stroke="#FF0000" stroke-opacity="0.2"/>
<line x1="1222.26" y1="483.105" x2="1630.55" y2="483.105" stroke="#FF0000" stroke-opacity="0.2"/>
<line x1="1222.26" y1="508.559" x2="1630.55" y2="508.559" stroke="#FF0000" stroke-opacity="0.2"/>
<line x1="1222.26" y1="534.078" x2="1630.55" y2="534.078" stroke="#FF0000" stroke-opacity="0.2"/>
<line x1="1630.54" y1="560" x2="1630.54" y2="1120" stroke="#FF0000" stroke-opacity="0.2"/>
<line x1="1172.86" y1="560" x2="1172.86" y2="840" stroke="#FF0000" stroke-opacity="0.2"/>
<line x1="841.827" y1="560" x2="841.827" y2="840" stroke="#FF0000" stroke-opacity="0.2"/>
<line x1="867.281" y1="560" x2="867.281" y2="840" stroke="#FF0000" stroke-opacity="0.2"/>
<line x1="892.734" y1="560" x2="892.734" y2="840" stroke="#FF0000" stroke-opacity="0.2"/>
<line x1="918.19" y1="560" x2="918.19" y2="840" stroke="#FF0000" stroke-opacity="0.2"/>
<line x1="943.646" y1="560" x2="943.646" y2="840" stroke="#FF0000" stroke-opacity="0.2"/>
<line x1="969.1" y1="560" x2="969.1" y2="840" stroke="#FF0000" stroke-opacity="0.2"/>
<line x1="994.554" y1="560" x2="994.554" y2="840" stroke="#FF0000" stroke-opacity="0.2"/>
<line x1="1020.01" y1="560" x2="1020.01" y2="840" stroke="#FF0000" stroke-opacity="0.2"/>
<line x1="1045.46" y1="560" x2="1045.46" y2="840" stroke="#FF0000" stroke-opacity="0.2"/>
<line x1="1070.92" y1="560" x2="1070.92" y2="840" stroke="#FF0000" stroke-opacity="0.2"/>
<line x1="1096.37" y1="560" x2="1096.37" y2="840" stroke="#FF0000" stroke-opacity="0.2"/>
<line x1="1121.82" y1="560" x2="1121.82" y2="840" stroke="#FF0000" stroke-opacity="0.2"/>
<line x1="1147.28" y1="560" x2="1147.28" y2="840" stroke="#FF0000" stroke-opacity="0.2"/>
<line x1="1197.94" y1="560" x2="1197.94" y2="840" stroke="#FF0000" stroke-opacity="0.2"/>
<line x1="816" y1="610.791" x2="1223.27" y2="610.791" stroke="#FF0000" stroke-opacity="0.2"/>
<line x1="816" y1="635.832" x2="1223.27" y2="635.832" stroke="#FF0000" stroke-opacity="0.2"/>
<line x1="816" y1="661.509" x2="1222.76" y2="661.509" stroke="#FF0000" stroke-opacity="0.2"/>
<line x1="816" y1="686.645" x2="1222.76" y2="686.645" stroke="#FF0000" stroke-opacity="0.2"/>
<path d="M816 712.6H1222.76" stroke="#FF0000" stroke-opacity="0.2"/>
<line x1="816" y1="737.618" x2="1222.76" y2="737.618" stroke="#FF0000" stroke-opacity="0.2"/>
<line x1="816" y1="763.072" x2="1222.76" y2="763.072" stroke="#FF0000" stroke-opacity="0.2"/>
<line x1="816" y1="788.527" x2="1222.76" y2="788.527" stroke="#FF0000" stroke-opacity="0.2"/>
<line x1="816" y1="814.109" x2="1222.76" y2="814.109" stroke="#FF0000" stroke-opacity="0.2"/>
<line x1="816" y1="839.309" x2="1222.76" y2="839.309" stroke="#FF0000" stroke-opacity="0.2"/>
<line x1="1172.87" y1="840" x2="1172.87" y2="1120" stroke="#FF0000" stroke-opacity="0.2"/>
<line x1="841.827" y1="840" x2="841.827" y2="1120" stroke="#FF0000" stroke-opacity="0.2"/>
<line x1="867.282" y1="840" x2="867.282" y2="1120" stroke="#FF0000" stroke-opacity="0.2"/>
<line x1="892.735" y1="840" x2="892.735" y2="1120" stroke="#FF0000" stroke-opacity="0.2"/>
<line x1="918.191" y1="840" x2="918.191" y2="1120" stroke="#FF0000" stroke-opacity="0.2"/>
<line x1="943.646" y1="840" x2="943.646" y2="1120" stroke="#FF0000" stroke-opacity="0.2"/>
<line x1="969.101" y1="840" x2="969.101" y2="1120" stroke="#FF0000" stroke-opacity="0.2"/>
<line x1="994.555" y1="840" x2="994.555" y2="1120" stroke="#FF0000" stroke-opacity="0.2"/>
<line x1="1020.01" y1="840" x2="1020.01" y2="1120" stroke="#FF0000" stroke-opacity="0.2"/>
<line x1="1045.46" y1="840" x2="1045.46" y2="1120" stroke="#FF0000" stroke-opacity="0.2"/>
<line x1="1070.92" y1="840" x2="1070.92" y2="1120" stroke="#FF0000" stroke-opacity="0.2"/>
<line x1="1096.37" y1="840" x2="1096.37" y2="1120" stroke="#FF0000" stroke-opacity="0.2"/>
<line x1="1121.83" y1="840" x2="1121.83" y2="1120" stroke="#FF0000" stroke-opacity="0.2"/>
<line x1="1147.28" y1="840" x2="1147.28" y2="1120" stroke="#FF0000" stroke-opacity="0.2"/>
<line x1="1197.94" y1="840" x2="1197.94" y2="1120" stroke="#FF0000" stroke-opacity="0.2"/>
<line x1="816.001" y1="865.018" x2="1223.27" y2="865.018" stroke="#FF0000" stroke-opacity="0.2"/>
<line x1="816.001" y1="890.791" x2="1223.27" y2="890.791" stroke="#FF0000" stroke-opacity="0.2"/>
<line x1="816.001" y1="915.832" x2="1223.27" y2="915.832" stroke="#FF0000" stroke-opacity="0.2"/>
<line x1="816.001" y1="941.509" x2="1222.76" y2="941.509" stroke="#FF0000" stroke-opacity="0.2"/>
<line x1="816.001" y1="966.646" x2="1222.76" y2="966.646" stroke="#FF0000" stroke-opacity="0.2"/>
<path d="M816.001 992.6H1222.76" stroke="#FF0000" stroke-opacity="0.2"/>
<line x1="816.001" y1="1017.62" x2="1222.76" y2="1017.62" stroke="#FF0000" stroke-opacity="0.2"/>
<line x1="816.001" y1="1043.07" x2="1222.76" y2="1043.07" stroke="#FF0000" stroke-opacity="0.2"/>
<line x1="816.001" y1="1068.53" x2="1222.76" y2="1068.53" stroke="#FF0000" stroke-opacity="0.2"/>
<line x1="816.001" y1="1094.11" x2="1222.76" y2="1094.11" stroke="#FF0000" stroke-opacity="0.2"/>
<line x1="1299.12" y1="560" x2="1299.12" y2="840" stroke="#FF0000" stroke-opacity="0.2"/>
<line x1="1604.19" y1="560" x2="1604.19" y2="840" stroke="#FF0000" stroke-opacity="0.2"/>
<line x1="1" y1="585.018" x2="408.272" y2="585.018" stroke="#FF0000" stroke-opacity="0.2"/>
<line x1="407.765" y1="585.018" x2="815.037" y2="585.018" stroke="#FF0000" stroke-opacity="0.2"/>
<line x1="816" y1="585.018" x2="1223.27" y2="585.018" stroke="#FF0000" stroke-opacity="0.2"/>
<line x1="1222.76" y1="585.018" x2="1630.04" y2="585.018" stroke="#FF0000" stroke-opacity="0.2"/>
<line y1="559.5" x2="407.272" y2="559.5" stroke="#FF0000" stroke-opacity="0.2"/>
<line x1="406.765" y1="559.5" x2="814.037" y2="559.5" stroke="#FF0000" stroke-opacity="0.2"/>
<line x1="815" y1="559.5" x2="1222.27" y2="559.5" stroke="#FF0000" stroke-opacity="0.2"/>
<line x1="1221.76" y1="559.5" x2="1629.04" y2="559.5" stroke="#FF0000" stroke-opacity="0.2"/>
<line x1="1222.76" y1="610.791" x2="1630.04" y2="610.791" stroke="#FF0000" stroke-opacity="0.2"/>
<line x1="1222.76" y1="635.832" x2="1630.04" y2="635.832" stroke="#FF0000" stroke-opacity="0.2"/>
<line x1="1222.76" y1="661.668" x2="1630.55" y2="661.668" stroke="#FF0000" stroke-opacity="0.2"/>
<line x1="1222.76" y1="686.709" x2="1630.04" y2="686.709" stroke="#FF0000" stroke-opacity="0.2"/>
<path d="M1222.76 712.664H1630.04" stroke="#FF0000" stroke-opacity="0.2"/>
<line x1="1222.76" y1="737.65" x2="1630.04" y2="737.65" stroke="#FF0000" stroke-opacity="0.2"/>
<line x1="1222.76" y1="763.104" x2="1630.04" y2="763.104" stroke="#FF0000" stroke-opacity="0.2"/>
<line x1="1222.76" y1="788.559" x2="1630.04" y2="788.559" stroke="#FF0000" stroke-opacity="0.2"/>
<line x1="1222.76" y1="814.109" x2="1630.04" y2="814.109" stroke="#FF0000" stroke-opacity="0.2"/>
<line x1="1222.76" y1="839.15" x2="1630.04" y2="839.15" stroke="#FF0000" stroke-opacity="0.2"/>
<line x1="1579.12" y1="560" x2="1579.12" y2="840" stroke="#FF0000" stroke-opacity="0.2"/>
<line x1="1579.12" y1="840" x2="1579.12" y2="1120" stroke="#FF0000" stroke-opacity="0.2"/>
<line x1="1248.21" y1="560" x2="1248.21" y2="840" stroke="#FF0000" stroke-opacity="0.2"/>
<line x1="1248.21" y1="840" x2="1248.21" y2="1120" stroke="#FF0000" stroke-opacity="0.2"/>
<line x1="1222.76" y1="560" x2="1222.76" y2="840" stroke="#FF0000" stroke-opacity="0.2"/>
<line x1="1222.76" y1="840" x2="1222.76" y2="1120" stroke="#FF0000" stroke-opacity="0.2"/>
<line x1="1273.66" y1="560" x2="1273.66" y2="840" stroke="#FF0000" stroke-opacity="0.2"/>
<line x1="1273.66" y1="840" x2="1273.66" y2="1120" stroke="#FF0000" stroke-opacity="0.2"/>
<line x1="1299.12" y1="840" x2="1299.12" y2="1120" stroke="#FF0000" stroke-opacity="0.2"/>
<line x1="1324.57" y1="560" x2="1324.57" y2="840" stroke="#FF0000" stroke-opacity="0.2"/>
<line x1="1324.57" y1="840" x2="1324.57" y2="1120" stroke="#FF0000" stroke-opacity="0.2"/>
<line x1="1350.03" y1="560" x2="1350.03" y2="840" stroke="#FF0000" stroke-opacity="0.2"/>
<line x1="1350.03" y1="840" x2="1350.03" y2="1120" stroke="#FF0000" stroke-opacity="0.2"/>
<line x1="1375.48" y1="560" x2="1375.48" y2="840" stroke="#FF0000" stroke-opacity="0.2"/>
<line x1="1375.48" y1="840" x2="1375.48" y2="1120" stroke="#FF0000" stroke-opacity="0.2"/>
<line x1="1400.94" y1="560" x2="1400.94" y2="840" stroke="#FF0000" stroke-opacity="0.2"/>
<line x1="1400.94" y1="840" x2="1400.94" y2="1120" stroke="#FF0000" stroke-opacity="0.2"/>
<line x1="1426.39" y1="560" x2="1426.39" y2="840" stroke="#FF0000" stroke-opacity="0.2"/>
<line x1="1426.39" y1="840" x2="1426.39" y2="1120" stroke="#FF0000" stroke-opacity="0.2"/>
<line x1="1451.85" y1="560" x2="1451.85" y2="840" stroke="#FF0000" stroke-opacity="0.2"/>
<line x1="1451.85" y1="840" x2="1451.85" y2="1120" stroke="#FF0000" stroke-opacity="0.2"/>
<line x1="1477.3" y1="560" x2="1477.3" y2="840" stroke="#FF0000" stroke-opacity="0.2"/>
<line x1="1477.3" y1="840" x2="1477.3" y2="1120" stroke="#FF0000" stroke-opacity="0.2"/>
<line x1="1502.75" y1="560" x2="1502.75" y2="840" stroke="#FF0000" stroke-opacity="0.2"/>
<line x1="1502.75" y1="840" x2="1502.75" y2="1120" stroke="#FF0000" stroke-opacity="0.2"/>
<line x1="1528.21" y1="560" x2="1528.21" y2="840" stroke="#FF0000" stroke-opacity="0.2"/>
<line x1="1528.21" y1="840" x2="1528.21" y2="1120" stroke="#FF0000" stroke-opacity="0.2"/>
<line x1="1553.66" y1="560" x2="1553.66" y2="840" stroke="#FF0000" stroke-opacity="0.2"/>
<line x1="1553.66" y1="840" x2="1553.66" y2="1120" stroke="#FF0000" stroke-opacity="0.2"/>
<line x1="1604.19" y1="840" x2="1604.19" y2="1120" stroke="#FF0000" stroke-opacity="0.2"/>
<line x1="1222.26" y1="865.019" x2="1630.04" y2="865.019" stroke="#FF0000" stroke-opacity="0.2"/>
<line x1="1222.26" y1="890.6" x2="1630.04" y2="890.6" stroke="#FF0000" stroke-opacity="0.2"/>
<line x1="1222.26" y1="915.848" x2="1630.04" y2="915.848" stroke="#FF0000" stroke-opacity="0.2"/>
<line x1="1222.26" y1="941.414" x2="1630.04" y2="941.414" stroke="#FF0000" stroke-opacity="0.2"/>
<line x1="1222.26" y1="966.455" x2="1630.04" y2="966.455" stroke="#FF0000" stroke-opacity="0.2"/>
<path d="M1222.26 992.664H1630.04" stroke="#FF0000" stroke-opacity="0.2"/>
<line x1="1222.26" y1="1017.65" x2="1630.04" y2="1017.65" stroke="#FF0000" stroke-opacity="0.2"/>
<line x1="1222.26" y1="1043.1" x2="1630.55" y2="1043.1" stroke="#FF0000" stroke-opacity="0.2"/>
<line x1="1222.26" y1="1068.56" x2="1630.55" y2="1068.56" stroke="#FF0000" stroke-opacity="0.2"/>
<line x1="1222.26" y1="1094.08" x2="1630.55" y2="1094.08" stroke="#FF0000" stroke-opacity="0.2"/>
</svg>
