<svg xmlns="http://www.w3.org/2000/svg" xmlns:xlink="http://www.w3.org/1999/xlink" width="500" zoomAndPan="magnify" viewBox="0 0 375 374.999991" height="500" preserveAspectRatio="xMidYMid meet" version="1.2"><defs><clipPath id="a01517037e"><path d="M 67 54 L 337.5 54 L 337.5 321 L 67 321 Z M 67 54 "/></clipPath></defs><g id="1d8f0e19b1"><path style=" stroke:none;fill-rule:evenodd;fill:#3c2a4d;fill-opacity:1;" d="M 99.433594 127.917969 C 99.6875 127.183594 99.996094 126.425781 100.042969 126.242188 C 100.773438 123.421875 101.085938 120.457031 101.011719 117.546875 C 100.816406 109.578125 98.160156 102.566406 93.972656 95.863281 C 92.710938 93.839844 91.367188 91.871094 90.0625 89.878906 C 89.90625 89.640625 89.152344 88.140625 88.78125 88.179688 C 88.507812 88.210938 88.710938 90.554688 88.71875 90.746094 C 88.839844 93.703125 88.875 96.679688 88.78125 99.632812 C 88.511719 107.859375 88.503906 116.316406 91.535156 124.109375 C 92.570312 126.757812 94.3125 130.257812 97.230469 131.390625 C 101.332031 145.75 109.992188 157.890625 116.769531 171.078125 C 115.933594 169.957031 115.0625 168.863281 114.160156 167.796875 C 106.1875 158.378906 96.171875 151.980469 84.421875 148.40625 C 81.882812 147.632812 79.328125 146.925781 76.75 146.289062 C 76.453125 146.214844 74.589844 145.542969 74.386719 145.875 C 74.089844 146.363281 75.875 148.566406 76.125 148.949219 C 78.257812 152.207031 80.503906 155.386719 82.648438 158.640625 C 89.523438 169.070312 99.902344 176.113281 111.316406 180.753906 C 114.175781 181.914062 118.953125 184.265625 122.40625 183.910156 C 126.863281 196.476562 128.402344 209.554688 127.792969 222.816406 C 127.429688 221.066406 127.023438 219.328125 126.589844 217.59375 C 124.757812 210.308594 122.027344 200.785156 116.300781 195.195312 C 116.613281 194.757812 116.851562 194.261719 117 193.710938 C 117.65625 191.269531 116.203125 188.75 113.757812 188.09375 C 111.3125 187.4375 108.792969 188.894531 108.140625 191.339844 C 107.484375 193.785156 108.9375 196.300781 111.382812 196.957031 C 112.195312 197.175781 113.019531 197.160156 113.777344 196.949219 C 119.441406 202.066406 121.914062 211.34375 123.667969 218.328125 C 123.902344 219.265625 124.128906 220.207031 124.34375 221.152344 C 120.921875 212.28125 115.851562 203.785156 108.734375 197.433594 C 107.765625 196.566406 102.375 191.15625 100.664062 191.996094 C 100.222656 192.214844 101.210938 194.582031 101.308594 194.917969 C 102.234375 198.101562 102.816406 201.394531 103.351562 204.664062 C 105.199219 215.949219 109.511719 225.070312 117.863281 233.183594 C 120.273438 235.523438 123.695312 236.765625 126.105469 238.980469 C 125.15625 245.519531 124.050781 252.027344 123.070312 258.550781 C 122.648438 257.703125 122.21875 256.859375 121.785156 256.019531 C 119.179688 250.964844 115.992188 246.335938 111.90625 242.375 C 111.808594 242.277344 111.703125 242.199219 111.585938 242.136719 C 111.640625 241.996094 111.6875 241.851562 111.726562 241.699219 C 112.382812 239.253906 110.929688 236.738281 108.484375 236.082031 C 106.039062 235.425781 103.519531 236.878906 102.863281 239.324219 C 102.210938 241.769531 103.664062 244.289062 106.109375 244.945312 C 107.375 245.285156 108.664062 245.058594 109.699219 244.417969 C 109.734375 244.460938 109.769531 244.5 109.808594 244.535156 C 113.65625 248.269531 116.652344 252.640625 119.109375 257.402344 C 119.964844 259.058594 120.800781 260.734375 121.605469 262.417969 C 121.722656 262.667969 121.738281 263.085938 121.796875 263.460938 C 121.878906 263.976562 122 264.449219 122.15625 264.769531 L 122.175781 264.8125 C 121.34375 271.066406 120.703125 277.347656 120.507812 283.691406 C 120.386719 287.667969 120.527344 291.652344 120.664062 295.625 C 120.691406 296.335938 120.527344 297.804688 120.695312 298.910156 C 120.820312 299.710938 121.117188 300.371094 121.53125 300.800781 C 122.105469 301.402344 123.058594 301.417969 123.660156 300.84375 C 124.238281 300.289062 124.277344 299.375 123.757812 298.773438 C 123.738281 298.679688 123.628906 298.078125 123.625 297.703125 C 123.613281 296.867188 123.695312 296.007812 123.675781 295.519531 C 123.542969 291.613281 123.398438 287.695312 123.519531 283.785156 C 123.695312 278.1875 124.214844 272.640625 124.910156 267.117188 C 125.632812 266.304688 126.445312 265.480469 126.515625 265.410156 C 129.96875 262.015625 134.191406 259.191406 138.351562 256.757812 C 148.128906 251.039062 154.550781 243.949219 156.429688 232.480469 C 156.714844 230.734375 158.195312 224.222656 156.730469 222.625 C 156.628906 222.515625 154.75 224.585938 154.613281 224.722656 C 152.167969 227.132812 149.765625 229.566406 147.414062 232.070312 C 142.03125 237.792969 136.976562 243.6875 131.953125 249.714844 C 129.933594 252.140625 127.964844 254.335938 126.378906 256.78125 C 127.554688 249.160156 128.863281 241.554688 129.84375 233.890625 C 130.914062 225.527344 131.234375 217.199219 130.632812 208.980469 C 131.46875 208.652344 132.964844 208.292969 133.496094 208.019531 C 136.019531 206.71875 138.363281 205.101562 140.550781 203.292969 C 149.835938 195.625 155.378906 184.183594 157.269531 172.421875 C 157.886719 168.589844 158.332031 164.695312 158.371094 160.8125 C 158.378906 160.285156 158.609375 157.707031 157.808594 157.457031 C 157.410156 157.335938 156.257812 160.101562 156.101562 160.386719 C 154.371094 163.503906 152.089844 166.222656 149.988281 169.085938 C 143.371094 178.082031 136.710938 187.5625 132.257812 197.925781 C 132.410156 195.90625 132.574219 193.890625 132.785156 191.878906 C 133.746094 182.714844 135.074219 173.894531 139.234375 165.605469 C 139.246094 165.578125 139.257812 165.550781 139.269531 165.523438 C 141.523438 165.832031 143.710938 164.421875 144.316406 162.167969 C 144.972656 159.722656 143.519531 157.203125 141.070312 156.546875 C 138.628906 155.890625 136.109375 157.347656 135.453125 159.792969 C 135.019531 161.40625 135.503906 163.046875 136.585938 164.167969 C 136.570312 164.195312 136.554688 164.226562 136.539062 164.253906 C 132.21875 172.875 130.785156 182.039062 129.789062 191.5625 C 129.566406 193.6875 129.394531 195.816406 129.238281 197.945312 C 127.945312 190.835938 125.878906 183.835938 122.925781 177 C 120.609375 171.648438 117.816406 166.550781 114.949219 161.503906 C 114.929688 161.113281 114.792969 160.183594 114.855469 159.78125 C 115.054688 158.476562 115.328125 157.171875 115.691406 155.902344 C 116.726562 152.285156 118.285156 148.835938 119.851562 145.425781 C 124.992188 134.246094 128.339844 124.296875 127.195312 111.734375 C 126.9375 108.898438 126.546875 106.042969 125.792969 103.292969 C 125.703125 102.960938 125.300781 100.800781 124.863281 100.683594 C 124.671875 100.632812 123.453125 103.875 123.355469 104.085938 C 121.695312 107.710938 119.796875 111.234375 117.953125 114.765625 C 113.707031 122.917969 112.773438 131.386719 111.945312 140.40625 C 111.710938 142.957031 111.464844 145.324219 111.3125 147.609375 C 110.75 145.351562 110.253906 143.078125 109.878906 140.78125 C 108.316406 131.253906 107.746094 121.644531 109.164062 112.085938 C 110.882812 111.796875 112.363281 110.539062 112.84375 108.746094 C 113.496094 106.300781 112.042969 103.78125 109.597656 103.128906 C 107.152344 102.472656 104.636719 103.925781 103.980469 106.371094 C 103.425781 108.449219 104.390625 110.578125 106.191406 111.574219 C 104.71875 121.46875 105.289062 131.410156 106.90625 141.269531 C 107.460938 144.648438 108.257812 147.980469 109.152344 151.289062 C 105.082031 143.886719 101.425781 136.304688 99.433594 127.917969 Z M 126.585938 227.902344 C 126.609375 227.890625 126.632812 227.878906 126.65625 227.863281 C 126.632812 227.875 126.609375 227.886719 126.585938 227.902344 Z M 126.585938 227.902344 "/><g clip-rule="nonzero" clip-path="url(#a01517037e)"><path style=" stroke:none;fill-rule:nonzero;fill:#3c2a4d;fill-opacity:1;" d="M 102.976562 95.449219 C 102.914062 87.171875 102.378906 81.019531 101.371094 76.988281 C 100.027344 72.421875 97.878906 69.0625 94.921875 66.914062 C 92.234375 65.304688 88.339844 64.09375 83.234375 63.289062 L 67.519531 60.871094 L 67.519531 54.019531 L 177.535156 54.019531 C 207.355469 54.019531 233.011719 58.183594 254.511719 66.511719 C 280.5625 75.644531 300.714844 89.886719 314.957031 109.230469 C 322.207031 119.4375 327.84375 130.855469 331.875 143.480469 C 335.640625 157.183594 337.515625 171.960938 337.515625 187.8125 C 337.515625 192.914062 337.121094 198.558594 336.3125 204.734375 C 335.777344 209.304688 334.703125 214.945312 333.09375 221.660156 C 332.28125 225.960938 330.53125 231.46875 327.84375 238.183594 C 325.96875 243.824219 323.550781 249.199219 320.597656 254.304688 C 317.910156 259.40625 314.679688 264.242188 310.929688 268.8125 C 307.429688 273.109375 303.398438 277.542969 298.839844 282.109375 C 290.5 289.898438 280.703125 296.75 269.414062 302.660156 C 256.792969 309.378906 244.429688 313.945312 232.339844 316.363281 C 218.371094 319.316406 205.070312 320.796875 192.445312 320.796875 L 67.519531 320.796875 L 67.519531 312.734375 C 71.550781 312.734375 75.980469 312.46875 80.816406 311.929688 C 83.773438 311.660156 86.996094 310.988281 90.488281 309.914062 C 95.59375 308.035156 98.953125 304.8125 100.5625 300.242188 C 102.175781 295.675781 102.980469 288.421875 102.980469 278.480469 L 102.980469 272.605469 L 144.488281 272.605469 L 144.488281 290.976562 C 144.488281 296.617188 145.96875 300.511719 148.921875 302.660156 C 151.878906 304.8125 157.789062 305.886719 166.652344 305.886719 C 191.640625 305.886719 212.058594 302.929688 227.90625 297.019531 C 244.296875 290.839844 257.996094 281.4375 269.007812 268.8125 C 276.800781 259.945312 282.84375 248.527344 287.140625 234.558594 C 291.171875 220.855469 293.1875 206.078125 293.1875 190.230469 C 293.1875 174.378906 290.90625 158.929688 286.34375 143.886719 C 282.046875 129.914062 275.457031 118.09375 266.601562 108.421875 C 252.886719 93.914062 237.847656 83.707031 221.460938 77.796875 C 204.535156 71.886719 184.652344 68.929688 161.816406 68.929688 C 155.90625 68.929688 151.609375 69.871094 148.921875 71.75 C 145.96875 73.898438 144.488281 77.125 144.488281 81.421875 L 144.488281 95.449219 Z M 102.976562 95.449219 "/></g></g></svg>