<svg xmlns="http://www.w3.org/2000/svg" xmlns:xlink="http://www.w3.org/1999/xlink" width="500" zoomAndPan="magnify" viewBox="0 0 375 374.999991" height="500" preserveAspectRatio="xMidYMid meet" version="1.2"><defs><clipPath id="191fc61b1b"><path d="M 37.5 37.5 L 337.5 37.5 L 337.5 337.5 L 37.5 337.5 Z M 37.5 37.5 "/></clipPath></defs><g id="9d0afdbe15"><path style=" stroke:none;fill-rule:nonzero;fill:#3c2a4d;fill-opacity:1;" d="M 187.5 107.863281 C 143.585938 107.863281 107.859375 143.578125 107.859375 187.492188 C 107.859375 231.40625 143.585938 267.136719 187.5 267.136719 C 231.414062 267.136719 267.144531 231.40625 267.144531 187.492188 C 267.144531 143.578125 231.414062 107.863281 187.5 107.863281 Z M 187.5 239.03125 C 159.089844 239.03125 135.976562 215.910156 135.976562 187.492188 C 135.976562 159.078125 159.089844 135.96875 187.5 135.96875 C 215.914062 135.96875 239.027344 159.078125 239.027344 187.492188 C 239.027344 215.910156 215.914062 239.03125 187.5 239.03125 Z M 187.5 239.03125 "/><path style=" stroke:none;fill-rule:nonzero;fill:#3c2a4d;fill-opacity:1;" d="M 270.136719 88.757812 C 261.246094 88.757812 254.039062 95.972656 254.039062 104.855469 C 254.039062 113.753906 261.246094 120.957031 270.136719 120.957031 C 279.023438 120.957031 286.230469 113.753906 286.230469 104.855469 C 286.230469 95.972656 279.023438 88.757812 270.136719 88.757812 Z M 270.136719 88.757812 "/><g clip-rule="nonzero" clip-path="url(#191fc61b1b)"><path style=" stroke:none;fill-rule:nonzero;fill:#3c2a4d;fill-opacity:1;" d="M 266.066406 37.507812 L 108.933594 37.507812 C 69.546875 37.507812 37.5 69.542969 37.5 108.925781 L 37.5 266.0625 C 37.5 305.445312 69.546875 337.492188 108.933594 337.492188 L 266.066406 337.492188 C 305.453125 337.492188 337.5 305.445312 337.5 266.0625 L 337.5 108.925781 C 337.5 69.542969 305.453125 37.507812 266.066406 37.507812 Z M 309.382812 266.0625 C 309.382812 289.945312 289.953125 309.390625 266.066406 309.390625 L 108.933594 309.390625 C 85.046875 309.390625 65.617188 289.945312 65.617188 266.0625 L 65.617188 108.925781 C 65.617188 85.039062 85.046875 65.609375 108.933594 65.609375 L 266.066406 65.609375 C 289.953125 65.609375 309.382812 85.039062 309.382812 108.925781 Z M 309.382812 266.0625 "/></g></g></svg>